<svg xmlns="http://www.w3.org/2000/svg" width="70" height="70" viewBox="0 0 70 70">
    <g fill="none" fill-rule="evenodd" transform="translate(2 2)">
        <circle cx="33" cy="33" r="33" stroke="#FFF" stroke-width="3"/>
        <path fill="#FFF" fill-rule="nonzero" d="M11.807 22.824v16.3c0 2.738 3.132 5.8 7.324 5.8h7.566c.142 1.41 1.514 2.356 3.745 2.591v1.21h-2.319c-.632 0-1.144.369-1.144.825 0 .456.512.826 1.144.826h6.759c.632 0 1.144-.37 1.144-.826 0-.456-.512-.826-1.144-.826h-2.153v-1.209c2.234-.234 3.607-1.18 3.75-2.591h13.226c4.038 0 7.323-2.332 7.323-5.2v-16.9c0-2.868-3.285-5.2-7.323-5.2H19.131c-4.038 0-7.324 2.332-7.324 5.2zm19.78 23.1c-1.748 0-2.634-.415-2.634-1.235v-17.74a6.415 6.415 0 0 0 2.633.548c.97 0 1.874-.203 2.637-.55V44.69c0 .82-.887 1.236-2.637 1.236zm4.924-6.33c.368.279.684.57.955.917h-.955v-.917zm0-14.382c1.42 1.522 2.19 3.306 2.19 5.185 0 1.879-.77 3.663-2.19 5.184V25.212zm6.91 12.502c-1.113.733-2.16 1.443-2.862 2.74-.01.02-.006.038-.014.057h-.567c-.008-.02-.012-.037-.021-.056-.702-1.298-1.749-2.008-2.862-2.741 1.444-1.16 2.517-2.498 3.163-3.949.646 1.451 1.72 2.789 3.163 3.949zm3.253 0c2.513-2.019 3.893-4.582 3.893-7.317 0-3.03-1.68-5.854-4.73-7.953-.442-.305-1.138-.305-1.579 0-1.88 1.293-3.232 2.863-4 4.584-.767-1.722-2.12-3.29-4-4.584a4.62 4.62 0 0 1-.46-.406h11.438c1.153 0 3.835.236 3.835 2.434v13.604c0 1.191-.79 1.803-1.696 2.117-.694-1.13-1.667-1.798-2.701-2.48zm-14.57-15.676c1.212.17 2.119.939 2.119 1.808v.15c0 1.02-1.184 1.85-2.637 1.85-1.45 0-2.633-.83-2.633-1.85v-.15c0-.455-.512-.825-1.143-.825-.633 0-1.145.37-1.145.825v16.665h-5.063c-1.155 0-3.838-.237-3.838-2.435V24.473c0-2.198 2.683-2.435 3.838-2.435h10.501zm22.636.786v16.9c0 1.957-2.258 3.549-5.035 3.549H36.511v-1.111h10.725c3.72 0 6.123-1.603 6.123-4.086V24.473c0-2.483-2.404-4.087-6.123-4.087H32.203 21.601c-3.72 0-6.125 1.604-6.125 4.087v13.603c0 2.483 2.404 4.086 6.125 4.086h5.064v1.111h-7.533c-2.79 0-5.037-2.27-5.037-4.149v-16.3c0-1.957 2.26-3.548 5.037-3.548h30.573c2.777 0 5.035 1.59 5.035 3.548z"/>
    </g>
</svg>
