<svg xmlns="http://www.w3.org/2000/svg" xmlns:xlink="http://www.w3.org/1999/xlink" viewBox="0 0 617 390.37"><defs><style>.a{fill:none;}.b{clip-path:url(#a);}.c{fill:#0878bf;opacity:0.76;isolation:isolate;}.d{fill:#00378f;}</style><clipPath id="a"><rect class="a" width="617" height="389"/></clipPath></defs><title>background-angle</title><rect class="a" width="617" height="389"/><g class="b"><path class="c" d="M342.7,813.91c50.92-3.92,115,11.79,148.52-32.15l21.65-34.41L613.42,549.86c27.58-48.73,30.53-121.43-1.68-168L497.16,178.66,224.35-305.21l-449.61,595.8c-32.21,46.55,33,210.49,60.6,259.24L-64.1,747.28l21.64,34.41c33.54,43.92,97.62,28.17,148.52,32.14l236.64.08Z"/><path class="d" d="M447.07,804.39,468.74,770,569.4,572.57c27.6-48.72,30.6-121.39-1.69-167.92L179.93-282.21l-370,487.91c-32.24,46.53-47,318.1-19.38,366.83l100.67,197.39,21.66,34.4c33.57,43.91,97.72,28.16,148.67,32.13,0,0,352,11.87,385.55-32.06Z"/></g></svg>